<svg width="141" height="71" viewBox="0 0 141 71" fill="none" xmlns="http://www.w3.org/2000/svg">
<path d="M21.0678 29.9701C25.547 31.1838 30.0485 32.9604 34.3753 34.6309C34.8192 34.8154 35.2223 35.0679 35.5731 35.3949C36.3202 36.0922 37.0916 36.7818 37.6967 37.6109C38.2262 38.3365 38.6325 39.2294 38.6509 40.1395C38.6665 40.9172 38.5729 41.6655 38.5394 42.4303C38.5018 43.29 38.0188 44.0579 37.5733 44.7578C36.4031 46.5965 34.0353 46.8271 32.067 47.1874C27.0694 48.1022 22.0601 48.2647 17.0015 47.9387C16.5661 47.9108 16.0943 47.9125 15.6799 47.9485C10.4052 48.4536 20.8631 50.8175 23.3101 51.3547C25.941 51.9405 29.0494 52.5418 31.5958 52.9744C33.2777 53.2402 34.1205 53.4117 35.5631 53.4612C40.6677 53.7214 55.3905 54.3747 53.9965 47.6205C53.9788 47.3713 54.0258 47.1974 54.2148 47.1052C54.5394 46.975 54.8203 46.9694 55.2545 46.9471C56.2124 46.9108 57.2909 46.9944 58.206 46.8609C60.5538 46.5861 62.8485 45.7948 65.1609 45.3138C65.7687 45.1961 66.4026 45.1434 67.0149 45.0647C67.3428 45.0181 68.2174 44.983 68.2832 44.8514C68.4584 44.7041 67.6188 44.2113 67.3013 43.7817C66.9578 43.3571 66.7019 42.7128 66.4748 42.1978C65.8106 40.6645 64.311 39.6081 62.7052 39.2313C61.9962 39.0617 61.3255 39.1214 60.6033 38.9872C60.0514 38.8901 59.4298 38.7084 58.9636 38.48C58.5653 38.2669 58.0821 38.0001 58.3148 37.5726C58.5748 37.2043 59.1422 37.1163 59.5448 36.9507C60.3146 36.6714 60.8616 35.9691 61.1599 35.1031C61.4249 34.3358 61.4451 33.4748 61.2446 32.6861C59.6526 26.8516 55.1276 22.4493 50.8879 18.3431C47.5341 14.7343 43.6392 11.4467 39.3749 8.94786C39.1117 8.79113 38.4217 8.55061 38.5624 8.98548C38.879 9.58931 39.4274 10.071 39.9023 10.5474C40.6553 11.3031 41.2464 12.1682 41.9191 12.9887C42.9867 14.2909 44.0709 15.5252 44.8208 17.0505C45.7015 18.8024 46.753 20.5051 47.6185 22.2764C48.1364 23.3365 48.8779 24.6657 48.4166 25.8314C47.9689 26.9627 46.8024 27.6931 45.9236 28.4592C45.7011 28.6528 45.4775 28.8486 45.2988 29.0828C45.0631 29.392 44.9139 29.7595 44.6877 30.0765C43.8658 31.2282 42.5395 31.1552 41.3148 30.8876C41.3133 30.8873 41.3126 30.8872 41.3111 30.8869C40.5641 30.7283 39.806 30.5101 39.1706 30.1288C37.3177 29.0415 36.0264 27.1896 34.4766 25.7571C30.4283 22.0202 26.6622 17.7228 23.0904 13.5091C22.7884 13.173 22.32 12.6764 22.1321 12.5287C21.555 12.0577 22.3244 13.2993 23.3501 14.7938C24.2496 16.0862 25.162 17.374 26.1453 18.605C26.587 19.1579 26.8848 19.5973 27.1787 20.2383C27.5422 21.0301 27.9023 21.8235 28.2494 22.6223C28.7825 23.8492 28.9701 25.089 28.7994 26.4183C28.6305 27.7076 27.5791 27.9846 26.4894 28.0674C26.0604 28.1548 23.3565 28.2924 23.0086 28.3191C22.1165 28.3886 21.1759 28.4454 20.2824 28.3867C19.0956 28.308 17.9281 28.0665 16.7594 27.8609C15.0278 27.5564 13.2905 27.2779 11.5449 27.0615C11.3707 27.0454 11.1941 27.0373 11.0348 27.0439C10.8125 27.0523 10.6286 27.0903 10.5561 27.1525C10.2181 27.4932 12.6325 27.8527 12.9637 27.9267C15.7101 28.3877 18.3717 29.2618 21.049 29.9647L21.0658 29.9689L21.0678 29.9701Z" fill="white"/>
<path d="M122.138 39.6837C117.936 37.7152 113.353 36.1617 108.971 34.6401C108.513 34.494 108.042 34.4262 107.563 34.4491C106.543 34.4983 105.508 34.526 104.511 34.7677C103.638 34.9791 102.751 35.3979 102.149 36.0805C101.634 36.664 101.222 37.2954 100.753 37.9008C100.226 38.5811 100.099 39.4792 99.9861 40.3012C99.6908 42.4606 101.349 44.1668 102.618 45.7138C105.84 49.6418 109.558 53.0032 113.629 56.0237C113.979 56.2837 114.338 56.59 114.631 56.8852C118.33 60.6796 108.822 55.7248 106.607 54.5534C104.221 53.3 101.46 51.75 99.2374 50.4344C97.7822 49.5503 97.0282 49.1365 95.8954 48.242C91.8319 45.1416 80.1746 36.1252 85.6034 31.8718C85.778 31.6931 85.8545 31.5301 85.7699 31.3375C85.6064 31.0284 85.3956 30.8426 85.0786 30.545C84.3712 29.8982 83.4941 29.265 82.8821 28.5717C81.268 26.8447 80.0283 24.7578 78.5746 22.8963C78.1869 22.4137 77.7372 21.9638 77.3208 21.508C77.1007 21.2606 76.4559 20.6685 76.4908 20.5256C76.4523 20.2999 77.4115 20.4665 77.9314 20.3439C78.468 20.2418 79.0797 19.9156 79.5858 19.6694C81.0835 18.9285 82.9106 19.0916 84.3795 19.8418C85.0302 20.1706 85.5034 20.6496 86.1412 21.0139C86.6251 21.2965 87.2169 21.5595 87.7203 21.6866C88.162 21.7814 88.7031 21.89 88.8018 21.4135C88.8415 20.9643 88.4653 20.5305 88.2651 20.1439C87.8581 19.4333 87.8946 18.5439 88.2267 17.6902C88.5203 16.9335 89.0614 16.2634 89.7241 15.791C94.7096 12.3676 101.008 11.9326 106.897 11.5391C111.789 10.9527 116.885 10.9611 121.754 11.8101C122.057 11.8607 122.739 12.1231 122.35 12.3639C121.718 12.6201 120.989 12.6333 120.318 12.6899C119.255 12.7799 118.245 13.0581 117.201 13.2495C115.545 13.5533 113.92 13.7944 112.362 14.4738C110.558 15.2415 108.655 15.8612 106.85 16.6536C105.769 17.1279 104.345 17.663 103.943 18.8507C103.554 20.0033 103.972 21.3145 104.147 22.4671C104.192 22.7586 104.236 23.0525 104.221 23.3467C104.201 23.7351 104.077 24.1119 104.045 24.5C103.928 25.9101 104.987 26.7114 106.095 27.2988L106.098 27.3006C106.771 27.6623 107.49 27.9858 108.222 28.1054C110.338 28.4732 112.52 27.8946 114.629 27.803C120.133 27.5677 125.785 26.7223 131.233 25.8151C131.681 25.7538 132.359 25.6776 132.598 25.6863C133.343 25.6998 131.953 26.1501 130.205 26.6276C128.683 27.0326 127.155 27.4256 125.609 27.7295C124.914 27.866 124.403 28.0088 123.765 28.308C122.976 28.6773 122.188 29.0501 121.407 29.4353C120.207 30.027 119.263 30.8519 118.534 31.9766C117.83 33.0696 118.453 33.9605 119.231 34.7279C119.502 35.0719 121.476 36.9243 121.724 37.1696C122.36 37.7992 123.041 38.4504 123.761 38.983C124.718 39.6899 125.765 40.2602 126.789 40.8586C128.308 41.7453 129.813 42.6556 131.285 43.6186C131.429 43.7189 131.569 43.8268 131.686 43.9348C131.85 44.085 131.966 44.2328 131.981 44.3271C132.019 44.8055 129.944 43.5195 129.643 43.3619C127.25 41.9387 124.654 40.8856 122.156 39.6918L122.141 39.6842L122.138 39.6837Z" fill="white"/>
</svg>
